<svg xmlns="http://www.w3.org/2000/svg" viewBox="0 0 100 100" preserveAspectRatio="xMidYMid slice">
  <path d="M 100.00 50.00 L 99.98 64.97 L 99.90 69.75 L 99.78 73.20 L 99.61 76.01 L 99.40 78.39 L 99.13 80.49 L 98.81 82.36 L 98.44 84.05 L 98.02 85.59 L 97.55 87.01 L 97.02 88.32 L 96.44 89.52 L 95.80 90.64 L 95.11 91.68 L 94.35 92.64 L 93.53 93.53 L 92.64 94.35 L 91.68 95.11 L 90.64 95.80 L 89.52 96.44 L 88.32 97.02 L 87.01 97.55 L 85.59 98.02 L 84.05 98.44 L 82.36 98.81 L 80.49 99.13 L 78.39 99.40 L 76.01 99.61 L 73.20 99.78 L 69.75 99.90 L 64.97 99.98 L 50.00 100.00 L 35.03 99.98 L 30.25 99.90 L 26.80 99.78 L 23.99 99.61 L 21.61 99.40 L 19.51 99.13 L 17.64 98.81 L 15.95 98.44 L 14.41 98.02 L 12.99 97.55 L 11.68 97.02 L 10.48 96.44 L 9.36 95.80 L 8.32 95.11 L 7.36 94.35 L 6.47 93.53 L 5.65 92.64 L 4.89 91.68 L 4.20 90.64 L 3.56 89.52 L 2.98 88.32 L 2.45 87.01 L 1.98 85.59 L 1.56 84.05 L 1.19 82.36 L 0.87 80.49 L 0.60 78.39 L 0.39 76.01 L 0.22 73.20 L 0.10 69.75 L 0.02 64.97 L 0.00 50.00 L 0.02 35.03 L 0.10 30.25 L 0.22 26.80 L 0.39 23.99 L 0.60 21.61 L 0.87 19.51 L 1.19 17.64 L 1.56 15.95 L 1.98 14.41 L 2.45 12.99 L 2.98 11.68 L 3.56 10.48 L 4.20 9.36 L 4.89 8.32 L 5.65 7.36 L 6.47 6.47 L 7.36 5.65 L 8.32 4.89 L 9.36 4.20 L 10.48 3.56 L 11.68 2.98 L 12.99 2.45 L 14.41 1.98 L 15.95 1.56 L 17.64 1.19 L 19.51 0.87 L 21.61 0.60 L 23.99 0.39 L 26.80 0.22 L 30.25 0.10 L 35.03 0.02 L 50.00 0.00 L 64.97 0.02 L 69.75 0.10 L 73.20 0.22 L 76.01 0.39 L 78.39 0.60 L 80.49 0.87 L 82.36 1.19 L 84.05 1.56 L 85.59 1.98 L 87.01 2.45 L 88.32 2.98 L 89.52 3.56 L 90.64 4.20 L 91.68 4.89 L 92.64 5.65 L 93.53 6.47 L 94.35 7.36 L 95.11 8.32 L 95.80 9.36 L 96.44 10.48 L 97.02 11.68 L 97.55 12.99 L 98.02 14.41 L 98.44 15.95 L 98.81 17.64 L 99.13 19.51 L 99.40 21.61 L 99.61 23.99 L 99.78 26.80 L 99.90 30.25 L 99.98 35.03 L 100.00 50.00 Z" fill="#000"/>
</svg>
